<mxfile host="app.diagrams.net" modified="2024-02-26T14:30:53.917Z" agent="Mozilla/5.0 (Windows NT 10.0; Win64; x64) AppleWebKit/537.36 (KHTML, like Gecko) Chrome/121.0.0.0 Safari/537.36 OPR/107.0.0.0 (Edition Yx 05)" etag="Fh7WlLigegIdgx_Vvbey" version="23.1.6" type="github">
  <diagram name="Страница — 1" id="QYtQcL5u40gvqQc4aAnL">
    <mxGraphModel dx="996" dy="559" grid="1" gridSize="10" guides="1" tooltips="1" connect="1" arrows="1" fold="1" page="1" pageScale="1" pageWidth="827" pageHeight="1169" math="0" shadow="0">
      <root>
        <mxCell id="0" />
        <mxCell id="1" parent="0" />
        <mxCell id="S-PdaXhprlgl-zrf-EEx-3" value="" style="edgeStyle=orthogonalEdgeStyle;rounded=0;orthogonalLoop=1;jettySize=auto;html=1;" edge="1" parent="1" source="S-PdaXhprlgl-zrf-EEx-1" target="S-PdaXhprlgl-zrf-EEx-2">
          <mxGeometry relative="1" as="geometry" />
        </mxCell>
        <mxCell id="S-PdaXhprlgl-zrf-EEx-1" value="начало" style="strokeWidth=2;html=1;shape=mxgraph.flowchart.terminator;whiteSpace=wrap;" vertex="1" parent="1">
          <mxGeometry x="364" y="20" width="100" height="60" as="geometry" />
        </mxCell>
        <mxCell id="S-PdaXhprlgl-zrf-EEx-6" value="" style="edgeStyle=orthogonalEdgeStyle;rounded=0;orthogonalLoop=1;jettySize=auto;html=1;" edge="1" parent="1" source="S-PdaXhprlgl-zrf-EEx-2" target="S-PdaXhprlgl-zrf-EEx-5">
          <mxGeometry relative="1" as="geometry" />
        </mxCell>
        <mxCell id="S-PdaXhprlgl-zrf-EEx-2" value="int len =s.length();" style="whiteSpace=wrap;html=1;strokeWidth=2;" vertex="1" parent="1">
          <mxGeometry x="354" y="120" width="120" height="60" as="geometry" />
        </mxCell>
        <mxCell id="S-PdaXhprlgl-zrf-EEx-4" value="bool gets(string s)&lt;br&gt;{" style="strokeWidth=2;html=1;shape=mxgraph.flowchart.annotation_2;align=left;labelPosition=right;pointerEvents=1;dashed=1;" vertex="1" parent="1">
          <mxGeometry x="414" y="60" width="166" height="60" as="geometry" />
        </mxCell>
        <mxCell id="S-PdaXhprlgl-zrf-EEx-8" value="" style="edgeStyle=orthogonalEdgeStyle;rounded=0;orthogonalLoop=1;jettySize=auto;html=1;" edge="1" parent="1" source="S-PdaXhprlgl-zrf-EEx-5" target="S-PdaXhprlgl-zrf-EEx-7">
          <mxGeometry relative="1" as="geometry" />
        </mxCell>
        <mxCell id="S-PdaXhprlgl-zrf-EEx-14" value="" style="edgeStyle=orthogonalEdgeStyle;rounded=0;orthogonalLoop=1;jettySize=auto;html=1;" edge="1" parent="1" source="S-PdaXhprlgl-zrf-EEx-5" target="S-PdaXhprlgl-zrf-EEx-13">
          <mxGeometry relative="1" as="geometry" />
        </mxCell>
        <mxCell id="S-PdaXhprlgl-zrf-EEx-5" value="for (int i = 0; i &amp;lt; len / 2; i++)" style="shape=hexagon;perimeter=hexagonPerimeter2;whiteSpace=wrap;html=1;fixedSize=1;strokeWidth=2;" vertex="1" parent="1">
          <mxGeometry x="330" y="210" width="166" height="80" as="geometry" />
        </mxCell>
        <mxCell id="S-PdaXhprlgl-zrf-EEx-10" value="" style="edgeStyle=orthogonalEdgeStyle;rounded=0;orthogonalLoop=1;jettySize=auto;html=1;" edge="1" parent="1" source="S-PdaXhprlgl-zrf-EEx-7" target="S-PdaXhprlgl-zrf-EEx-9">
          <mxGeometry relative="1" as="geometry" />
        </mxCell>
        <mxCell id="S-PdaXhprlgl-zrf-EEx-11" style="edgeStyle=orthogonalEdgeStyle;rounded=0;orthogonalLoop=1;jettySize=auto;html=1;exitX=1;exitY=0.5;exitDx=0;exitDy=0;entryX=0;entryY=0.5;entryDx=0;entryDy=0;" edge="1" parent="1" source="S-PdaXhprlgl-zrf-EEx-7" target="S-PdaXhprlgl-zrf-EEx-5">
          <mxGeometry relative="1" as="geometry">
            <Array as="points">
              <mxPoint x="550" y="360" />
              <mxPoint x="550" y="530" />
              <mxPoint x="160" y="530" />
              <mxPoint x="160" y="250" />
            </Array>
          </mxGeometry>
        </mxCell>
        <mxCell id="S-PdaXhprlgl-zrf-EEx-7" value="&amp;nbsp;if (s[i] != s[len - i - 1])" style="rhombus;whiteSpace=wrap;html=1;strokeWidth=2;" vertex="1" parent="1">
          <mxGeometry x="340" y="320" width="146" height="80" as="geometry" />
        </mxCell>
        <mxCell id="S-PdaXhprlgl-zrf-EEx-12" style="edgeStyle=orthogonalEdgeStyle;rounded=0;orthogonalLoop=1;jettySize=auto;html=1;exitX=0.5;exitY=1;exitDx=0;exitDy=0;" edge="1" parent="1" source="S-PdaXhprlgl-zrf-EEx-9">
          <mxGeometry relative="1" as="geometry">
            <mxPoint x="270" y="530" as="targetPoint" />
          </mxGeometry>
        </mxCell>
        <mxCell id="S-PdaXhprlgl-zrf-EEx-9" value="return false;" style="whiteSpace=wrap;html=1;strokeWidth=2;" vertex="1" parent="1">
          <mxGeometry x="210" y="410" width="120" height="60" as="geometry" />
        </mxCell>
        <mxCell id="S-PdaXhprlgl-zrf-EEx-13" value="return true;" style="whiteSpace=wrap;html=1;strokeWidth=2;" vertex="1" parent="1">
          <mxGeometry x="650" y="330" width="120" height="60" as="geometry" />
        </mxCell>
        <mxCell id="S-PdaXhprlgl-zrf-EEx-15" value="True" style="text;html=1;align=center;verticalAlign=middle;whiteSpace=wrap;rounded=0;" vertex="1" parent="1">
          <mxGeometry x="270" y="330" width="60" height="30" as="geometry" />
        </mxCell>
        <mxCell id="S-PdaXhprlgl-zrf-EEx-16" value="False" style="text;html=1;align=center;verticalAlign=middle;whiteSpace=wrap;rounded=0;" vertex="1" parent="1">
          <mxGeometry x="496" y="330" width="60" height="30" as="geometry" />
        </mxCell>
        <mxCell id="S-PdaXhprlgl-zrf-EEx-17" value="True" style="text;html=1;align=center;verticalAlign=middle;whiteSpace=wrap;rounded=0;" vertex="1" parent="1">
          <mxGeometry x="354" y="290" width="60" height="30" as="geometry" />
        </mxCell>
        <mxCell id="S-PdaXhprlgl-zrf-EEx-18" value="False" style="text;html=1;align=center;verticalAlign=middle;whiteSpace=wrap;rounded=0;" vertex="1" parent="1">
          <mxGeometry x="650" y="220" width="60" height="30" as="geometry" />
        </mxCell>
        <mxCell id="S-PdaXhprlgl-zrf-EEx-19" value="конец" style="strokeWidth=2;html=1;shape=mxgraph.flowchart.terminator;whiteSpace=wrap;" vertex="1" parent="1">
          <mxGeometry x="660" y="630" width="100" height="60" as="geometry" />
        </mxCell>
        <mxCell id="S-PdaXhprlgl-zrf-EEx-20" style="edgeStyle=orthogonalEdgeStyle;rounded=0;orthogonalLoop=1;jettySize=auto;html=1;exitX=0.5;exitY=1;exitDx=0;exitDy=0;entryX=0.5;entryY=0;entryDx=0;entryDy=0;entryPerimeter=0;" edge="1" parent="1" source="S-PdaXhprlgl-zrf-EEx-13" target="S-PdaXhprlgl-zrf-EEx-19">
          <mxGeometry relative="1" as="geometry" />
        </mxCell>
        <mxCell id="S-PdaXhprlgl-zrf-EEx-21" value="}" style="strokeWidth=2;html=1;shape=mxgraph.flowchart.annotation_2;align=left;labelPosition=right;pointerEvents=1;dashed=1;" vertex="1" parent="1">
          <mxGeometry x="710" y="570" width="50" height="40" as="geometry" />
        </mxCell>
      </root>
    </mxGraphModel>
  </diagram>
</mxfile>
